<?xml version="1.0" encoding="iso-8859-1"?>
<!-- Generator: Adobe Illustrator 19.0.0, SVG Export Plug-In . SVG Version: 6.00 Build 0)  -->
<svg version="1.1" id="Layer_1" xmlns="http://www.w3.org/2000/svg" xmlns:xlink="http://www.w3.org/1999/xlink" x="0px" y="0px"
	 viewBox="0 0 512.001 512.001" style="enable-background:new 0 0 512.001 512.001;" xml:space="preserve">
<g>
	<path style="fill:#2D404E;" d="M173.751,392.657c2.248,7.762-2.221,15.877-9.982,18.123l-13.227,3.83
		c-7.762,2.248-15.875-2.221-18.123-9.982L92.44,266.575c-2.248-7.762,2.221-15.875,9.982-18.123l13.227-3.83
		c7.762-2.248,15.875,2.223,18.123,9.984L173.751,392.657z"/>
	<polygon style="fill:#2D404E;" points="92.441,266.575 81.541,270.097 117.255,394.888 128.623,391.519 	"/>
	<path style="fill:#F2B643;" d="M71.212,227.497l10.328,42.6l35.715,124.791c0,0,4.734,15.061,7.746,18.504
		c0,0-7.746,12.479-12.479,12.479c0,0-4.303-5.594-11.619-30.982c-7.314-25.39-31.841-111.452-31.841-111.452
		s-4.305-14.199-6.025-25.818c-1.72-11.619-6.455-30.121-6.455-30.121h14.63C71.212,227.498,71.212,227.497,71.212,227.497z"/>
	<path style="fill:#9D6227;" d="M100.904,394.888c-7.315-25.389-31.842-111.451-31.842-111.451s-4.305-14.199-6.025-25.818
		c-1.72-11.619-6.455-30.121-6.455-30.121l-18.934,3.873c0,0-0.572,48.051,4.018,80.182c4.59,32.129,17.213,69.709,26.965,83.336
		c9.754,13.627,12.91,16.783,12.91,16.783s23.666,13.34,30.982,14.199C112.523,425.87,108.22,420.277,100.904,394.888z"/>
	<path style="fill:#D89932;" d="M117.255,394.888c0,0,4.734,15.061,7.746,18.504c0,0,0.861-7.029-3.873-19.652L117.255,394.888z"/>
	<path style="fill:#9D6227;" d="M56.582,225.775c0,0-6.023-20.654-3.012-40.018c3.012-19.365,12.479-50.777,30.121-80.898
		l-7.744-4.734c0,0-20.225,38.297-26.25,57.232c-6.023,18.934-12.08,60.668-12.07,71.861L56.582,225.775z"/>
	<path style="fill:#F2B643;" d="M56.582,225.775c0,0-6.023-20.654-3.012-40.018c3.012-19.365,12.479-50.777,30.121-80.898
		l9.324,5.881c0,0-40.164,55.365-22.664,115.035H56.582z"/>
	<path style="fill:#2D404E;" d="M314.093,392.657c-2.248,7.762,2.223,15.877,9.984,18.123l13.225,3.83
		c7.762,2.248,15.877-2.221,18.125-9.982l39.979-138.053c2.246-7.762-2.223-15.875-9.984-18.123l-13.227-3.83
		c-7.762-2.248-15.875,2.223-18.123,9.984L314.093,392.657z"/>
	<polygon style="fill:#2D404E;" points="395.406,266.575 406.304,270.097 370.589,394.888 359.222,391.519 	"/>
	<path style="fill:#F2B643;" d="M416.632,227.497l-10.328,42.6l-35.715,124.791c0,0-4.734,15.061-7.746,18.504
		c0,0,7.746,12.479,12.479,12.479c0,0,4.305-5.594,11.619-30.982s31.844-111.451,31.844-111.451s4.303-14.199,6.023-25.818
		s6.455-30.121,6.455-30.121h-14.631L416.632,227.497L416.632,227.497z"/>
	<path style="fill:#9D6227;" d="M450.197,231.37l-18.934-3.873c0,0-4.734,18.502-6.455,30.121s-6.023,25.818-6.023,25.818
		s-24.529,86.062-31.844,111.451c-7.315,25.389-11.619,30.982-11.619,30.982c7.316-0.859,30.982-14.199,30.982-14.199
		s3.156-3.156,12.91-16.783s22.377-51.207,26.967-83.336C450.771,279.421,450.197,231.37,450.197,231.37z"/>
	<path style="fill:#D89932;" d="M370.589,394.888c0,0-4.734,15.061-7.746,18.504c0,0-0.861-7.029,3.873-19.652L370.589,394.888z"/>
	<path style="fill:#9D6227;" d="M431.263,225.775c0,0,6.023-20.654,3.012-40.018c-3.012-19.365-12.479-50.777-30.121-80.898
		l7.746-4.734c0,0,20.225,38.297,26.248,57.232c6.025,18.934,12.08,60.668,12.072,71.861L431.263,225.775z"/>
	<path style="fill:#F2B643;" d="M431.263,225.775c0,0,6.023-20.654,3.012-40.018c-3.012-19.365-12.479-50.777-30.121-80.898
		l-9.322,5.881c0,0,40.164,55.365,22.664,115.035H431.263z"/>
	<path style="fill:#9D6227;" d="M328.562,20.374c-40.449-21.23-84.639-20.369-84.639-20.369s-44.191-0.861-84.641,20.369
		c-40.449,21.229-70.283,57.375-82.045,77.17l15.777,10.9c0,0,12.623-21.803,42.457-46.762c0,0,0.289-11.188,12.91-21.801
		c12.621-10.615,41.906-26.967,95.541-29.549c53.633,2.582,82.918,18.934,95.539,29.549c12.623,10.613,12.91,21.801,12.91,21.801
		c29.834,24.959,42.459,46.762,42.459,46.762l15.777-10.9C398.845,77.749,369.011,41.603,328.562,20.374z"/>
	<path style="fill:#2D404E;" d="M348.644,44.472l-1.611,1.303c0,0,5.914,5.51,7.205,12.18c0,0,22.807,20.439,34.424,37.436
		c0,0,1.723-7.314-2.797-14.846C381.347,73.015,348.644,44.472,348.644,44.472z"/>
	<path style="fill:#2D404E;" d="M243.923,10.333c-50.688,2.439-79.627,17.178-93.307,27.748c0,0,6.516,6.246,15.266,8.541
		s21.658,1.436,28.975,1.004c7.314-0.43,49.066-0.717,49.066-0.717s41.75,0.287,49.066,0.717c7.314,0.432,20.225,1.291,28.975-1.004
		s15.264-8.541,15.264-8.541C323.548,27.511,294.609,12.773,243.923,10.333z"/>
	<path style="fill:#2D404E;" d="M444.736,321.835l7.064,2.463c0,0,5.008-10.58,14.428-7.295c9.42,3.281,9.842,10.912,5.463,23.473
		c-6.43,18.447-11.688,18.373-14.043,17.553l-8.072,23.156l-8.002-3.051l7.936-22.764c0,0-7.771-0.285-2.105-17.201l-5.973-2.08
		L444.736,321.835z"/>
	<path style="fill:#2D404E;" d="M441.574,378.134c0,0-46.35,117.256-159.945,117.256v8.84c0,0,115.426,5.553,167.947-123.045
		L441.574,378.134z"/>
	<path style="fill:#2D404E;" d="M281.685,505.538c0,3.568-3.324,6.463-7.422,6.463H236.22c-4.1,0-7.422-2.895-7.422-6.463v-10.266
		c0-3.568,3.322-6.461,7.422-6.461h38.043c4.098,0,7.422,2.893,7.422,6.461V505.538z"/>
	<path style="fill:#2D404E;" d="M139.203,44.472l1.609,1.303c0,0-5.912,5.51-7.203,12.18c0,0-22.807,20.439-34.426,37.436
		c0,0-1.721-7.314,2.797-14.846C106.498,73.015,139.203,44.472,139.203,44.472z"/>
	<path style="fill:#915A26;" d="M100.904,394.888c7.316,25.389,11.619,30.982,11.619,30.982
		c-7.316-0.859-30.982-14.199-30.982-14.199s-3.156-3.156-12.91-16.783c-9.752-13.627-22.375-51.207-26.965-83.336
		c-4.59-32.131-4.018-80.182-4.018-80.182l4.131-0.846c0,0,0.604,57.646,7.488,84.756s29.691,71.002,39.588,76.166
		C98.753,396.609,100.904,394.888,100.904,394.888z"/>
	<path style="fill:#915A26;" d="M386.941,394.888c-7.314,25.389-11.619,30.982-11.619,30.982
		c7.316-0.859,30.982-14.199,30.982-14.199s3.156-3.156,12.91-16.783s22.377-51.207,26.967-83.336
		c4.59-32.131,4.016-80.182,4.016-80.182l-4.129-0.846c0,0-0.604,57.646-7.49,84.756c-6.885,27.109-29.691,71.002-39.588,76.166
		C389.093,396.609,386.941,394.888,386.941,394.888z"/>
	<path style="fill:#915A26;" d="M41.062,228.595c0,0,2.611-25.195,5.623-44.561c3.012-19.363,15.082-51.672,32.725-81.793
		l-3.463-2.117c0,0-20.225,38.297-26.25,57.232c-6.023,18.934-12.08,60.668-12.07,71.861L41.062,228.595z"/>
	<path style="fill:#915A26;" d="M446.785,228.595c0,0-2.611-25.195-5.625-44.561c-3.012-19.363-15.082-51.672-32.725-81.793
		l3.465-2.117c0,0,20.225,38.297,26.248,57.232c6.025,18.934,12.08,60.668,12.072,71.861L446.785,228.595z"/>
	<path style="fill:#915A26;" d="M79.414,99.048l-2.176-1.504C89,77.749,118.834,41.603,159.283,20.374
		C159.283,20.374,112.142,47.626,79.414,99.048z"/>
	<path style="fill:#915A26;" d="M408.63,98.909l1.979-1.365c-11.764-19.795-41.598-55.941-82.047-77.17
		C328.562,20.374,372.968,43.476,408.63,98.909z"/>
	<path style="fill:#D89932;" d="M60.658,225.775h-4.076c0,0-6.023-20.654-3.012-40.018c3.012-19.365,12.479-50.777,30.121-80.898
		l2.129,1.34c0,0-25.365,42.121-29.238,79.559C53.525,209.909,60.658,225.775,60.658,225.775z"/>
	<path style="fill:#D89932;" d="M427.187,225.775h4.076c0,0,6.023-20.654,3.012-40.018c-3.012-19.365-12.479-50.777-30.121-80.898
		l-2.127,1.34c0,0,25.363,42.121,29.236,79.559C434.32,209.909,427.187,225.775,427.187,225.775z"/>
	<path style="fill:#D89932;" d="M118.511,421.964c-2.043,2.174-4.225,3.906-5.988,3.906c0,0-4.303-5.594-11.619-30.982
		c-7.315-25.389-31.842-111.451-31.842-111.451s-4.305-14.199-6.025-25.818c-1.72-11.619-6.455-30.121-6.455-30.121h4.076
		c0,0,6.984,37.006,12.213,55.08c5.227,18.072,32.336,110.16,37.5,123.068C115.535,418.556,118.511,421.964,118.511,421.964z"/>
	<path style="fill:#D89932;" d="M369.333,421.964c2.045,2.174,4.227,3.906,5.988,3.906c0,0,4.305-5.594,11.619-30.982
		s31.844-111.451,31.844-111.451s4.303-14.199,6.023-25.818s6.455-30.121,6.455-30.121h-4.076c0,0-6.984,37.006-12.211,55.08
		c-5.229,18.072-32.338,110.16-37.502,123.068C372.31,418.556,369.333,421.964,369.333,421.964z"/>
	<path style="fill:#253744;" d="M102.423,248.452c-7.762,2.248-12.23,10.361-9.982,18.123l39.979,138.053
		c2.248,7.762,10.361,12.23,18.123,9.982L102.423,248.452z"/>
	<path style="fill:#253744;" d="M385.421,248.452c7.762,2.248,12.23,10.361,9.984,18.123l-39.979,138.053
		c-2.248,7.762-10.363,12.23-18.125,9.982L385.421,248.452z"/>
	<polygon style="fill:#223440;" points="92.441,266.575 85.82,268.714 121.128,393.739 128.623,391.519 	"/>
	<polygon style="fill:#223440;" points="395.406,266.575 402.027,268.714 366.716,393.739 359.222,391.519 	"/>
	<path style="fill:#253744;" d="M153.65,40.56c-1.922-1.412-3.033-2.479-3.033-2.479c13.68-10.57,42.619-25.309,93.307-27.748
		c50.686,2.439,79.625,17.178,93.305,27.748c0,0-0.895,0.859-2.467,2.057c0,0-29.684-19.764-90.838-19.764
		C182.767,20.374,153.65,40.56,153.65,40.56z"/>
	<path style="fill:#253744;" d="M443.574,378.896l-2-0.762l7.936-22.764c0,0-7.771-0.285-2.105-17.201l-5.973-2.08l3.305-14.254
		l7.064,2.463c0,0,5.008-10.58,14.428-7.295c0,0-5.047-1.139-9.689,9.68c-4.641,10.818-9.283,23.65-4.096,26.928L443.574,378.896z"
		/>
	<path style="fill:#253744;" d="M228.798,505.538c0,3.568,3.322,6.463,7.422,6.463h38.043c4.098,0,7.422-2.895,7.422-6.463
		L228.798,505.538L228.798,505.538z"/>
	<rect x="239.863" y="488.812" style="fill:#F2B643;" width="6.055" height="23.189"/>
	<rect x="239.863" y="505.538" style="fill:#D89932;" width="6.055" height="6.463"/>
</g>
<g>
</g>
<g>
</g>
<g>
</g>
<g>
</g>
<g>
</g>
<g>
</g>
<g>
</g>
<g>
</g>
<g>
</g>
<g>
</g>
<g>
</g>
<g>
</g>
<g>
</g>
<g>
</g>
<g>
</g>
</svg>
